<?xml version="1.0" standalone="no"?>
<!DOCTYPE svg PUBLIC "-//W3C//DTD SVG 20010904//EN"
 "http://www.w3.org/TR/2001/REC-SVG-20010904/DTD/svg10.dtd">
<svg version="1.0" xmlns="http://www.w3.org/2000/svg"
 width="500.000000pt" height="500.000000pt" viewBox="0 0 500.000000 500.000000"
 preserveAspectRatio="xMidYMid meet">

<g transform="translate(0.000000,500.000000) scale(0.100000,-0.100000)"
fill="#000000" stroke="none">
<path d="M3272 4953 c-38 -8 -119 -93 -131 -138 -7 -25 -11 -164 -11 -377 0
-186 -2 -338 -5 -338 -2 0 -250 153 -550 340 l-545 341 -59 -45 c-103 -79
-194 -193 -261 -326 -37 -73 -21 -28 -871 -2452 -436 -1246 -619 -1779 -619
-1808 0 -34 6 -48 34 -76 l35 -35 1003 3 1003 3 80 23 c92 27 242 96 310 142
71 49 179 154 234 229 63 85 135 233 162 336 21 77 29 244 38 752 l1 52 528 3
527 3 95 33 c212 74 347 192 441 386 74 151 74 156 74 836 0 663 1 655 -59
688 -28 15 -71 17 -391 18 l-360 0 -28 105 c-187 685 -293 1055 -317 1106 -34
74 -97 140 -163 171 -48 23 -148 36 -195 25z"/>
</g>
</svg>
