<svg width="36.226" height="32" version="1.1" xmlns="http://www.w3.org/2000/svg" viewBox="0 0 36.226 32"><path d="M8.194 2.658C12.209 5.672 16.528 11.784 18.113 15.063c1.586 -3.279 5.904 -9.391 9.919 -12.405C30.929 0.484 35.622 -1.199 35.622 4.155c0 1.069 -0.613 8.983 -0.973 10.268 -1.25 4.467 -5.805 5.606 -9.856 4.917 7.082 1.205 8.884 5.198 4.993 9.191 -7.39 7.583 -10.621 -1.903 -11.449 -4.333 -0.152 -0.446 -0.223 -0.654 -0.224 -0.477 -0.001 -0.177 -0.072 0.031 -0.224 0.477 -0.828 2.43 -4.059 11.916 -11.449 4.333 -3.891 -3.993 -2.089 -7.985 4.993 -9.191 -4.052 0.69 -8.607 -0.45 -9.856 -4.917C1.217 13.139 0.604 5.225 0.604 4.155c0 -5.355 4.694 -3.672 7.591 -1.497z" fill="#1185fe"/></svg>