<svg width="32.667" height="32" xmlns="http://www.w3.org/2000/svg" viewBox="0 0 32.667 32"><path fill-rule="evenodd" clip-rule="evenodd" d="M16.285 0C7.28 0 0 7.333 0 16.406c0 7.252 4.664 13.391 11.135 15.563 0.809 0.163 1.105 -0.353 1.105 -0.787 0 -0.38 -0.027 -1.684 -0.027 -3.042 -4.53 0.978 -5.473 -1.956 -5.473 -1.956 -0.728 -1.901 -1.807 -2.39 -1.807 -2.39 -1.483 -1.005 0.108 -1.005 0.108 -1.005 1.645 0.109 2.508 1.684 2.508 1.684 1.456 2.499 3.801 1.793 4.745 1.358 0.135 -1.059 0.566 -1.793 1.025 -2.2 -3.613 -0.38 -7.414 -1.793 -7.414 -8.094 0 -1.793 0.647 -3.259 1.671 -4.4 -0.162 -0.407 -0.728 -2.092 0.162 -4.346 0 0 1.375 -0.435 4.475 1.684a15.667 15.667 0 0 1 4.071 -0.543c1.375 0 2.777 0.19 4.071 0.543 3.101 -2.119 4.476 -1.684 4.476 -1.684 0.89 2.254 0.323 3.939 0.162 4.346 1.052 1.141 1.672 2.607 1.672 4.4 0 6.302 -3.801 7.687 -7.441 8.094 0.593 0.516 1.105 1.494 1.105 3.042 0 2.2 -0.027 3.966 -0.027 4.509 0 0.435 0.297 0.951 1.105 0.788 6.471 -2.173 11.135 -8.312 11.135 -15.564C32.569 7.333 25.263 0 16.285 0" fill="#24292f"/></svg>