<?xml version="1.0" standalone="no"?>
<!DOCTYPE svg PUBLIC "-//W3C//DTD SVG 20010904//EN"
 "http://www.w3.org/TR/2001/REC-SVG-20010904/DTD/svg10.dtd">
<svg version="1.0" xmlns="http://www.w3.org/2000/svg"
 width="512.000000pt" height="512.000000pt" viewBox="0 0 512.000000 512.000000"
 preserveAspectRatio="xMidYMid meet">

<g transform="translate(0.000000,512.000000) scale(0.100000,-0.100000)"
fill="#000000" stroke="none">
<path d="M496 4612 l-497 -497 783 -777 783 -778 -783 -777 -783 -778 497
-497 497 -496 779 771 c429 425 783 772 788 772 5 0 359 -347 788 -772 l779
-771 497 496 497 497 -783 778 -783 777 783 778 783 777 -497 497 -497 496
-779 -771 c-429 -425 -783 -772 -788 -772 -5 0 -359 347 -788 772 l-779 771
-497 -496z m2064 -1897 c6 0 395 381 864 847 l853 847 69 -70 69 -69 -855
-855 -855 -855 855 -855 855 -855 -69 -69 -69 -70 -853 847 c-469 466 -858
847 -864 847 -6 0 -395 -381 -864 -847 l-853 -847 -69 70 -69 69 855 855 855
855 -855 855 -855 855 69 69 69 70 853 -847 c469 -466 858 -847 864 -847z"/>
</g>
</svg>
